PathFileType	4	(X/Y/Z)	outputs\dynamic_markers.trc
DataRate	CameraRate	NumFrames	NumMarkers	Units	OrigDataRate	OrigDataStartFrame	OrigNumFrames
360.000000	360.000000	4	45	m	360.000000	401	643
Frame#	Time	C7			CLAV			LANK			LASI			LBHD			LELB			LFHD			LFIN			LFRM			LHEE			LKNE			LMANK			LMELB			LMKNE			LPSI			LSHO			LTHI			LTIB			LTOE			LUPA			LWRA			LWRB			RANK			RASI			RBAK			RBHD			RELB			RFHD			RFIN			RFRM			RHEE			RKNE			RMANK			RMELB			RMKNE			RPSI			RSHO			RTHI			RTIB			RTOE			RUPA			RWRA			RWRB			STRN			T10			
		X1	Y1	Z1	X2	Y2	Z2	X3	Y3	Z3	X4	Y4	Z4	X5	Y5	Z5	X6	Y6	Z6	X7	Y7	Z7	X8	Y8	Z8	X9	Y9	Z9	X10	Y10	Z10	X11	Y11	Z11	X12	Y12	Z12	X13	Y13	Z13	X14	Y14	Z14	X15	Y15	Z15	X16	Y16	Z16	X17	Y17	Z17	X18	Y18	Z18	X19	Y19	Z19	X20	Y20	Z20	X21	Y21	Z21	X22	Y22	Z22	X23	Y23	Z23	X24	Y24	Z24	X25	Y25	Z25	X26	Y26	Z26	X27	Y27	Z27	X28	Y28	Z28	X29	Y29	Z29	X30	Y30	Z30	X31	Y31	Z31	X32	Y32	Z32	X33	Y33	Z33	X34	Y34	Z34	X35	Y35	Z35	X36	Y36	Z36	X37	Y37	Z37	X38	Y38	Z38	X39	Y39	Z39	X40	Y40	Z40	X41	Y41	Z41	X42	Y42	Z42	X43	Y43	Z43	X44	Y44	Z44	X45	Y45	Z45	

402	1.113888888888889	0.327624427293664	1.389359400365922	0.1222080335089789	0.2722759165887019	1.299049804208079	0.2401006978718069	0.7414546920934613	0.2071866001758801	0.8525892084364276	0.5424997403075716	0.9587215972678536	0.2618336263764705	0.283324192613818	1.522306327338736	0.1315895842045494	0.501753307774529	1.1876919916483	0.5671440754318734	0.3847459667717097	1.545174455592606	0.2178956732085993	0.1911448921204028	1.124046747301044	0.7314857385304955	0.3664382063713731	1.145505637859279	0.6534982784917146	0.7174724076650526	0.1524283862479856	0.7590574255778962	0.6087960004025488	0.6446246788758515	0.5944700783610773	0.6321584082064833	0.1807417306801522	0.8439314033412176	0.5001197685206289	1.107639773013327	0.5265459392871515	0.5125686403017846	0.5579692539487419	0.5784241549695336	0.5824864259974863	0.9729941699343888	0.06188065974756148	0.4155448934723206	1.370343287930131	0.279361123870577	0.6199605000630115	0.8128335409562473	0.4291057513980294	0.6964934457989005	0.4722673366236172	0.6529601000117522	0.6212957437812047	0.2729003515070752	0.9774737190581207	0.4436281078601034	1.273653229216291	0.4246302419060528	0.24620266628408	1.127610597229667	0.6467740796923478	0.2761805834282581	1.066476493204124	0.6858725306550831	0.02471704923230548	0.06523758255941053	0.1475185124509018	0.3288304688370386	0.887872051109289	0.1230482309402814	0.3620161869798095	1.221935046423641	0.006232514873389989	0.1865846882353208	1.517106463692101	0.2330324329669078	-0.05253403940619263	1.083643256536957	0.1159804428407629	0.2823196999068699	1.540675226058355	0.3370352755148162	-0.04108445958218278	1.068418131810237	0.4581234231320683	-0.0518160676237053	1.077034823514993	0.2904817255153613	0.09234611062091097	0.07878486979377017	0.08625098147586635	0.08970478659794802	0.5391058163164381	0.3057177418544411	0.1348171774430275	0.0541805337503794	0.1871401017355466	0.008014706932830505	1.017827960584149	0.1115260271512397	0.1840682146464885	0.4958813802699293	0.3775374688543187	0.486267027611389	0.9407834480977488	0.005870604590202949	0.1539748697522594	1.356453348229065	0.08350645820195408	0.2163976532561746	0.6704943667630122	0.1647144694034394	0.05611810892181627	0.3345686697815206	0.2070056987836859	0.05452327490126634	0.06839720723625531	0.3175439412825251	0.05334918857226728	1.237381124858397	0.06379975663451659	0.008735717439841969	1.037678354180233	0.4075108255694511	-0.07047108659287017	1.041546726441838	0.3914992298684801	0.2833002325825777	1.117006294322327	0.2358030692920809	0.5057174795523822	1.049681886302071	0.03410693399153782	
403	1.116666666666667	0.3295965094039157	1.387258204837037	0.1228258401584571	0.2741742192492586	1.296777455330967	0.2404409176224391	0.7510101568068529	0.205964079392587	0.8542797905585174	0.5454211609713049	0.9565787223406115	0.2615312755597391	0.2852623999534773	1.519970828185696	0.1320826468254734	0.504192638569353	1.185534320168518	0.5676060279354878	0.3866695588766321	1.542744856261709	0.218425497099428	0.1967669863348059	1.116418819714083	0.7356257969024717	0.3704354812218121	1.141024258193257	0.6554131379346031	0.7274722217759907	0.1495765029450136	0.7614942426234071	0.6161304374086485	0.6403348793266238	0.5920130269158222	0.6418774690781803	0.1785585121501665	0.845842365669868	0.5035188015660441	1.105619420928599	0.5268551718643741	0.5208195477638448	0.552810456936604	0.575811935980087	0.5848287658301612	0.9713722057810544	0.06146433851810761	0.4170609786231739	1.368114598796868	0.2800125705318882	0.6244959889107222	0.8095291615240451	0.4274825975291726	0.705362797815865	0.4690184624688016	0.6522728517622205	0.6302846265934594	0.2727914838508684	0.9780587052641405	0.4453699686510202	1.271373341000253	0.425075116544271	0.2505001204734711	1.120932358114584	0.6501088184911447	0.282107875715887	1.060367195022398	0.6888522191397054	0.02478001572995689	0.06530396707732553	0.1475653955902321	0.3313966286953113	0.8858627616222274	0.1231074856701208	0.3643452937033229	1.220187965022123	0.006736570922518587	0.1884845713958138	1.514826326426594	0.2334908156702833	-0.05135873567530743	1.082553332747363	0.1148431089654606	0.2842014067107807	1.538301178793428	0.3375294561505973	-0.04318015371314006	1.058401768942709	0.4566647104949589	-0.05228397631723256	1.071430342577501	0.2892439090084863	0.09244423783720124	0.0788444436622477	0.08634075380634144	0.09123880687121994	0.5389302939316081	0.3061115449957996	0.1348624850099381	0.05409967787652116	0.1872101324119093	0.008894764958442944	1.016659574750991	0.1093743507814843	0.1854933207815966	0.4953052745689785	0.377932521507223	0.4884550981164853	0.9391182431902148	0.005617269750447775	0.1561957378786965	1.354670398015301	0.08385021245408089	0.218484116459693	0.6694705625852427	0.1648331717187652	0.05701443484267602	0.3345880269983054	0.2072966243321816	0.05454134255626869	0.06835906783069677	0.3175985684423814	0.05530871772767305	1.236268028510207	0.06346623937853556	0.006804522403307204	1.028454750499456	0.4058227905925152	-0.07217086354994488	1.033350658006688	0.3891718851337126	0.2852702714998716	1.114652024522359	0.2359618283147526	0.5079492107131097	1.047955817656288	0.03409857357079347	
404	1.119444444444444	0.3315798131904412	1.385125000846205	0.1234689112283576	0.2760945853664572	1.294466638307435	0.240811588909664	0.7606384083809514	0.2048036356391856	0.8557260146619629	0.5483640130322105	0.9544246162924772	0.261226027208011	0.2872273914767721	1.517594671219267	0.1326058640477917	0.5067387064770381	1.183317898020261	0.5680502249983188	0.3886135920213062	1.540272242654609	0.2189921181415036	0.2026678437369471	1.108760185001029	0.7397657909998415	0.3746241776809369	1.136509561253618	0.6573128827343513	0.7375172179688135	0.1468934455384484	0.7636691314760079	0.6235445344416261	0.6361964600767637	0.5895826426779531	0.6516601485949528	0.1764899933008652	0.8475163669977803	0.5070299377657267	1.103553061284185	0.5271470520789644	0.5291457334067788	0.5477935031264447	0.5732598681045925	0.5871939123911151	0.9697233545441309	0.06104461886574356	0.4186149647633061	1.36583699183755	0.280679221848541	0.6290784885625976	0.8063177510234042	0.4258854662438721	0.7142813302146895	0.4659191265696616	0.6515073249548329	0.6393815921867548	0.2726594060718842	0.9784523601831524	0.4471880715177947	1.269036433006632	0.4255275260061073	0.2550490834769535	1.114196107776407	0.6534537859053586	0.2882952741299453	1.05425079747408	0.6918290983334511	0.0248451861336578	0.06537389467606153	0.1476146976964653	0.333986674062294	0.8838441152713149	0.1231670839410709	0.3666891386925026	1.218409641242245	0.007256186502208561	0.1904014336048242	1.512514093042639	0.2339705995690207	-0.05018110822063816	1.081452310490103	0.1137008237237189	0.2860931883582912	1.535892930628679	0.3380520839016526	-0.04539067504122977	1.048281897238884	0.454918411710426	-0.05281235169350409	1.065757965403904	0.2878644625698272	0.09254551090454644	0.07890750282502418	0.08643371142902433	0.0928039329013168	0.5387460891925634	0.3065243952828947	0.1349101586468353	0.05401741526546724	0.1872813229488154	0.009773708714508266	1.015499076556251	0.1072000359991971	0.1869506018754121	0.4947173694450291	0.3783368743590251	0.4906732692105504	0.9374172757672715	0.005365866333046042	0.1584352033892129	1.352854182899657	0.08423276850246275	0.2205970771659568	0.6684264957074501	0.1649706974464266	0.05792904379825502	0.3346059792763309	0.2076011341972716	0.05456262285141039	0.06832135661108764	0.3176571972737053	0.05728090944970931	1.235152935147154	0.06317101371758106	0.004756131321089587	1.01912495662718	0.4038713086625453	-0.07396518239808109	1.025092564230513	0.3866047241212958	0.2872767651562318	1.112259256965008	0.2361395080626832	0.5101998815134248	1.046204907141423	0.0340805877522858	
405	1.122222222222222	0.33357343942265	1.382960351570032	0.1241372484146395	0.2780382158896987	1.292117185578582	0.2412133856651184	0.7703407603550585	0.2036980888562007	0.8569318563144909	0.5513290167337633	0.9522607720717459	0.2609171572935559	0.2892186875756569	1.515178542724933	0.1331602669794393	0.5093964421169302	1.181040102978829	0.5684720069154876	0.3905777537672598	1.537757641293397	0.2195963660343962	0.2088548610456242	1.101077559555801	0.7439034421040372	0.3790116187894735	1.131962935367816	0.6591939501181872	0.7476121879502681	0.1443746393612416	0.7655808085056314	0.6310337167248524	0.6322079243450076	0.5871796174642143	0.6615090665936483	0.1745290468212648	0.8489528772775327	0.5106543204453369	1.101439332172753	0.5274156802829055	0.537539064750071	0.5429198495589377	0.5707740719624841	0.5895814552089989	0.9680477721728779	0.06062055940254812	0.4202092298726149	1.36351130123006	0.2813602155340661	0.633707492898741	0.8032000846420659	0.4243156691532385	0.7232425706348471	0.4629646321024385	0.6506610036171614	0.6485832846253163	0.2724926915988546	0.9786604387432035	0.4490875202291891	1.266642144894041	0.425986121683452	0.2598580297261643	1.107406294019149	0.6568073641255121	0.2947496986887649	1.048132740547259	0.6948005830932911	0.02491190291513838	0.06544686914801728	0.1476661878386687	0.3366007987683994	0.881817902291561	0.1232272879867013	0.3690448706579601	1.216600244945702	0.007791301424314703	0.1923350772706822	1.510169504980019	0.2344730487309016	-0.04900101167846801	1.08033754052612	0.1125533980065677	0.287995030819445	1.533450482579447	0.3386042493137313	-0.0477176733735704	1.038067733383231	0.4528735621983809	-0.05340160737631765	1.060021546459463	0.2863371067488067	0.09264900166922681	0.07897380465879353	0.08652938454259897	0.094400363128794	0.5385535776289764	0.3069550282283665	0.1349597589562963	0.05393429286318506	0.1873532606775	0.0106520099645628	1.014345517210756	0.1050031946672087	0.1884392530300365	0.4941184876520471	0.3787502973509334	0.4929217187476788	0.9356799027254358	0.005116148993666469	0.1606905892651775	1.35100347070093	0.0846578655388542	0.2227362145556419	0.6673629076330334	0.1651268994014794	0.05886169405517764	0.3346228389894601	0.2079185409467214	0.05458647482915133	0.0682840745696805	0.317719230715533	0.05926409301758331	1.234033281640768	0.06291695333958103	0.002590685197587557	1.009699221627022	0.4016463592730821	-0.07585424236195028	1.016781634101046	0.3837889538016866	0.2893210204936047	1.109828388549871	0.2363371105979129	0.5124688832246603	1.044429258340116	0.03405162060425659	
